<svg width="236" height="122" viewBox="0 0 236 122" fill="none" xmlns="http://www.w3.org/2000/svg">
<rect width="236" height="122" rx="14" fill="#171515"/>
<g clip-path="url(#clip0_341_865)">
<path d="M118 46C109.712 46 103 52.7125 103 61C103 67.6375 107.294 73.2438 113.256 75.2313C114.006 75.3625 114.287 74.9125 114.287 74.5188C114.287 74.1625 114.269 72.9813 114.269 71.725C110.5 72.4188 109.525 70.8062 109.225 69.9625C109.056 69.5312 108.325 68.2 107.688 67.8437C107.162 67.5625 106.412 66.8687 107.669 66.85C108.85 66.8312 109.694 67.9375 109.975 68.3875C111.325 70.6562 113.481 70.0188 114.344 69.625C114.475 68.65 114.869 67.9937 115.3 67.6187C111.962 67.2437 108.475 65.95 108.475 60.2125C108.475 58.5812 109.056 57.2312 110.013 56.1812C109.863 55.8062 109.337 54.2687 110.162 52.2062C110.162 52.2062 111.419 51.8125 114.287 53.7438C115.487 53.4063 116.763 53.2375 118.038 53.2375C119.313 53.2375 120.588 53.4063 121.788 53.7438C124.656 51.7938 125.913 52.2062 125.913 52.2062C126.738 54.2687 126.213 55.8062 126.063 56.1812C127.019 57.2312 127.6 58.5625 127.6 60.2125C127.6 65.9687 124.094 67.2437 120.756 67.6187C121.3 68.0875 121.769 68.9875 121.769 70.3938C121.769 72.4 121.75 74.0125 121.75 74.5188C121.75 74.9125 122.031 75.3813 122.781 75.2313C125.759 74.2262 128.347 72.3125 130.18 69.7595C132.013 67.2066 132.999 64.1429 133 61C133 52.7125 126.288 46 118 46Z" fill="#F2F2F2"/>
</g>
<defs>
<clipPath id="clip0_341_865">
<rect width="30" height="30" fill="white" transform="translate(103 46)"/>
</clipPath>
</defs>
</svg>
