<svg width="236" height="122" viewBox="0 0 236 122" fill="none" xmlns="http://www.w3.org/2000/svg">
<rect width="236" height="122" rx="14" fill="url(#paint0_linear_341_868)"/>
<g clip-path="url(#clip0_341_868)">
<path d="M125.969 46H110.031C106.148 46 103 49.148 103 53.0312V68.9688C103 72.852 106.148 76 110.031 76H125.969C129.852 76 133 72.852 133 68.9688V53.0312C133 49.148 129.852 46 125.969 46Z" fill="url(#paint1_radial_341_868)"/>
<path d="M125.969 46H110.031C106.148 46 103 49.148 103 53.0312V68.9688C103 72.852 106.148 76 110.031 76H125.969C129.852 76 133 72.852 133 68.9688V53.0312C133 49.148 129.852 46 125.969 46Z" fill="url(#paint2_radial_341_868)"/>
<path d="M118.001 49.2812C114.818 49.2812 114.419 49.2952 113.169 49.352C111.921 49.4092 111.07 49.6067 110.325 49.8965C109.554 50.1958 108.9 50.5962 108.249 51.2478C107.597 51.8992 107.196 52.553 106.896 53.3235C106.606 54.0688 106.408 54.9208 106.352 56.1678C106.296 57.4178 106.281 57.8174 106.281 61.0001C106.281 64.1828 106.295 64.581 106.352 65.8309C106.409 67.0785 106.607 67.9301 106.896 68.6752C107.196 69.4461 107.596 70.0998 108.248 70.7512C108.899 71.4031 109.553 71.8045 110.323 72.1037C111.069 72.3936 111.921 72.591 113.168 72.6482C114.418 72.705 114.817 72.719 118 72.719C121.183 72.719 121.581 72.705 122.831 72.6482C124.078 72.591 124.931 72.3936 125.676 72.1037C126.447 71.8045 127.1 71.4031 127.751 70.7512C128.403 70.0998 128.803 69.4461 129.104 68.6755C129.392 67.9301 129.589 67.0783 129.648 65.8312C129.704 64.5812 129.719 64.1828 129.719 61.0001C129.719 57.8174 129.704 57.418 129.648 56.168C129.589 54.9204 129.392 54.0689 129.104 53.3239C128.803 52.553 128.403 51.8992 127.751 51.2478C127.099 50.596 126.447 50.1955 125.676 49.8966C124.929 49.6067 124.077 49.4091 122.829 49.352C121.579 49.2952 121.181 49.2812 117.997 49.2812H118.001ZM116.95 51.3931C117.262 51.3926 117.61 51.3931 118.001 51.3931C121.13 51.3931 121.501 51.4043 122.736 51.4605C123.879 51.5127 124.499 51.7036 124.912 51.8641C125.459 52.0764 125.849 52.3304 126.259 52.7406C126.669 53.1508 126.923 53.5414 127.136 54.0883C127.296 54.5008 127.488 55.1209 127.54 56.2635C127.596 57.4989 127.608 57.8699 127.608 60.9974C127.608 64.1249 127.596 64.4961 127.54 65.7313C127.487 66.8739 127.296 67.4941 127.136 67.9067C126.924 68.4536 126.669 68.843 126.259 69.2529C125.849 69.6631 125.459 69.9169 124.912 70.1294C124.5 70.2905 123.879 70.4809 122.736 70.5332C121.501 70.5893 121.13 70.6015 118.001 70.6015C114.872 70.6015 114.501 70.5893 113.266 70.5332C112.123 70.4805 111.503 70.2896 111.09 70.1291C110.543 69.9167 110.152 69.6629 109.742 69.2527C109.332 68.8425 109.078 68.4529 108.865 67.9057C108.705 67.4931 108.513 66.873 108.461 65.7304C108.405 64.495 108.394 64.124 108.394 60.9945C108.394 57.8651 108.405 57.496 108.461 56.2606C108.514 55.118 108.705 54.4979 108.865 54.0848C109.077 53.5379 109.332 53.1473 109.742 52.7371C110.152 52.327 110.543 52.073 111.09 51.8602C111.503 51.6991 112.123 51.5086 113.266 51.4561C114.347 51.4073 114.766 51.3926 116.95 51.3902V51.3931ZM124.257 53.3389C123.48 53.3389 122.85 53.9682 122.85 54.7446C122.85 55.521 123.48 56.1509 124.257 56.1509C125.033 56.1509 125.663 55.521 125.663 54.7446C125.663 53.9683 125.033 53.3384 124.257 53.3384V53.3389ZM118.001 54.982C114.678 54.982 111.983 57.6766 111.983 61.0001C111.983 64.3237 114.678 67.017 118.001 67.017C121.325 67.017 124.018 64.3237 124.018 61.0001C124.018 57.6767 121.324 54.982 118.001 54.982H118.001ZM118.001 57.0938C120.158 57.0938 121.907 58.8426 121.907 61.0001C121.907 63.1574 120.158 64.9064 118.001 64.9064C115.844 64.9064 114.095 63.1574 114.095 61.0001C114.095 58.8426 115.844 57.0938 118.001 57.0938Z" fill="white"/>
</g>
<defs>
<linearGradient id="paint0_linear_341_868" x1="35.8302" y1="-40.9208" x2="148.59" y2="161.625" gradientUnits="userSpaceOnUse">
<stop stop-color="#7831FA"/>
<stop offset="0.431024" stop-color="#F4018F"/>
<stop offset="1" stop-color="#FCC300"/>
</linearGradient>
<radialGradient id="paint1_radial_341_868" cx="0" cy="0" r="1" gradientUnits="userSpaceOnUse" gradientTransform="translate(110.969 78.3106) rotate(-90) scale(29.7322 27.6533)">
<stop stop-color="#FFDD55"/>
<stop offset="0.1" stop-color="#FFDD55"/>
<stop offset="0.5" stop-color="#FF543E"/>
<stop offset="1" stop-color="#C837AB"/>
</radialGradient>
<radialGradient id="paint2_radial_341_868" cx="0" cy="0" r="1" gradientUnits="userSpaceOnUse" gradientTransform="translate(97.9749 48.1611) rotate(78.681) scale(13.2905 54.7837)">
<stop stop-color="#3771C8"/>
<stop offset="0.128" stop-color="#3771C8"/>
<stop offset="1" stop-color="#6600FF" stop-opacity="0"/>
</radialGradient>
<clipPath id="clip0_341_868">
<rect width="30" height="30" fill="white" transform="translate(103 46)"/>
</clipPath>
</defs>
</svg>
