<svg width="236" height="122" viewBox="0 0 236 122" fill="none" xmlns="http://www.w3.org/2000/svg">
<rect width="236" height="122" rx="14" fill="#0072B1"/>
<path fill-rule="evenodd" clip-rule="evenodd" d="M104.25 49.5475C104.25 48.9382 104.492 48.3538 104.923 47.9229C105.354 47.4921 105.938 47.25 106.548 47.25H129.45C129.752 47.2495 130.051 47.3086 130.33 47.4238C130.609 47.5391 130.863 47.7083 131.077 47.9217C131.29 48.1351 131.46 48.3885 131.575 48.6675C131.691 48.9465 131.75 49.2455 131.75 49.5475V72.45C131.75 72.752 131.691 73.0512 131.576 73.3303C131.46 73.6094 131.291 73.863 131.078 74.0766C130.864 74.2903 130.61 74.4597 130.331 74.5752C130.052 74.6908 129.753 74.7502 129.451 74.75H106.548C106.246 74.75 105.947 74.6905 105.668 74.575C105.389 74.4595 105.136 74.2901 104.922 74.0766C104.709 73.8632 104.54 73.6097 104.425 73.3309C104.309 73.052 104.25 72.7531 104.25 72.4513V49.5475ZM115.135 57.735H118.859V59.605C119.396 58.53 120.771 57.5625 122.837 57.5625C126.799 57.5625 127.738 59.7038 127.738 63.6325V70.91H123.729V64.5275C123.729 62.29 123.191 61.0275 121.826 61.0275C119.932 61.0275 119.145 62.3888 119.145 64.5275V70.91H115.135V57.735ZM108.26 70.7388H112.27V57.5625H108.26V70.7388ZM112.844 53.265C112.851 53.6083 112.79 53.9497 112.664 54.2691C112.538 54.5886 112.349 54.8795 112.109 55.125C111.869 55.3705 111.582 55.5656 111.266 55.6988C110.949 55.8319 110.609 55.9005 110.266 55.9005C109.922 55.9005 109.582 55.8319 109.266 55.6988C108.949 55.5656 108.662 55.3705 108.422 55.125C108.182 54.8795 107.993 54.5886 107.867 54.2691C107.741 53.9497 107.68 53.6083 107.688 53.265C107.702 52.5911 107.98 51.9497 108.462 51.4784C108.944 51.007 109.592 50.743 110.266 50.743C110.94 50.743 111.587 51.007 112.069 51.4784C112.551 51.9497 112.829 52.5911 112.844 53.265Z" fill="#F2F2F2"/>
</svg>
