<svg width="237" height="123" viewBox="0 0 237 123" fill="none" xmlns="http://www.w3.org/2000/svg">
<rect width="236" height="122" rx="14" fill="#00ACEE"/>
<path d="M132.062 52.416C131.007 52.8744 129.891 53.1764 128.749 53.3125C129.949 52.6096 130.852 51.4929 131.288 50.1719C130.153 50.8355 128.913 51.3011 127.622 51.5488C127.079 50.979 126.425 50.5257 125.7 50.2165C124.976 49.9073 124.196 49.7486 123.409 49.75C120.22 49.75 117.64 52.293 117.64 55.4277C117.637 55.8638 117.687 56.2985 117.788 56.7227C115.502 56.6155 113.263 56.0322 111.215 55.0101C109.167 53.9881 107.354 52.5497 105.894 50.7871C105.382 51.6509 105.111 52.6364 105.109 53.6406C105.109 55.6094 106.137 57.3496 107.688 58.3692C106.769 58.3473 105.869 58.1041 105.064 57.6602V57.7305C105.064 60.4844 107.056 62.7754 109.693 63.2969C109.197 63.4291 108.686 63.496 108.173 63.4961C107.809 63.4967 107.445 63.4614 107.088 63.3906C107.821 65.6465 109.954 67.2871 112.482 67.334C110.428 68.9166 107.907 69.7719 105.314 69.7656C104.854 69.765 104.395 69.7376 103.938 69.6836C106.575 71.3677 109.641 72.2585 112.77 72.25C123.396 72.25 129.202 63.5957 129.202 56.0899C129.202 55.8438 129.196 55.5977 129.184 55.3574C130.311 54.5559 131.285 53.5598 132.062 52.416Z" fill="#F2F2F2"/>
</svg>
