<svg width="26" height="26" viewBox="0 0 26 26" fill="none" xmlns="http://www.w3.org/2000/svg">
<g clip-path="url(#clip0_409_921)">
<path d="M24.8114 13.25C24.8114 6.56055 19.3915 1.14062 12.702 1.14062C6.01257 1.14062 0.592651 6.56055 0.592651 13.25C0.592651 19.2939 5.02087 24.3037 10.8099 25.2129V16.7505H7.73376V13.25H10.8099V10.582C10.8099 7.54736 12.6166 5.87109 15.3837 5.87109C16.7089 5.87109 18.0946 6.10742 18.0946 6.10742V9.08594H16.5673C15.0634 9.08594 14.5941 10.0195 14.5941 10.9771V13.25H17.9525L17.4154 16.7505H14.5941V25.2129C20.3832 24.3037 24.8114 19.2939 24.8114 13.25Z" fill="#474554"/>
</g>
<defs>
<clipPath id="clip0_409_921">
<rect width="25" height="25" fill="white" transform="translate(0.202026 0.75)"/>
</clipPath>
</defs>
</svg>
