<svg width="25" height="26" viewBox="0 0 25 26" fill="none" xmlns="http://www.w3.org/2000/svg">
<g clip-path="url(#clip0_409_881)">
<path d="M12.4999 9.08325C11.3948 9.08325 10.335 9.52224 9.55364 10.3036C8.77224 11.085 8.33325 12.1448 8.33325 13.2499C8.33325 14.355 8.77224 15.4148 9.55364 16.1962C10.335 16.9776 11.3948 17.4166 12.4999 17.4166C13.605 17.4166 14.6648 16.9776 15.4462 16.1962C16.2276 15.4148 16.6666 14.355 16.6666 13.2499C16.6666 12.1448 16.2276 11.085 15.4462 10.3036C14.6648 9.52224 13.605 9.08325 12.4999 9.08325Z" fill="#474554"/>
<path fill-rule="evenodd" clip-rule="evenodd" d="M7.5 0.75C5.51088 0.75 3.60322 1.54018 2.1967 2.9467C0.790176 4.35322 0 6.26088 0 8.25L0 18.25C0 20.2391 0.790176 22.1468 2.1967 23.5533C3.60322 24.9598 5.51088 25.75 7.5 25.75H17.5C19.4891 25.75 21.3968 24.9598 22.8033 23.5533C24.2098 22.1468 25 20.2391 25 18.25V8.25C25 6.26088 24.2098 4.35322 22.8033 2.9467C21.3968 1.54018 19.4891 0.75 17.5 0.75L7.5 0.75ZM6.66667 13.25C6.66667 11.7029 7.28125 10.2192 8.37521 9.12521C9.46917 8.03125 10.9529 7.41667 12.5 7.41667C14.0471 7.41667 15.5308 8.03125 16.6248 9.12521C17.7188 10.2192 18.3333 11.7029 18.3333 13.25C18.3333 14.7971 17.7188 16.2808 16.6248 17.3748C15.5308 18.4688 14.0471 19.0833 12.5 19.0833C10.9529 19.0833 9.46917 18.4688 8.37521 17.3748C7.28125 16.2808 6.66667 14.7971 6.66667 13.25ZM18.3333 7.41667H20V5.75H18.3333V7.41667Z" fill="#474554"/>
</g>
<defs>
<clipPath id="clip0_409_881">
<rect width="25" height="25" fill="white" transform="translate(0 0.75)"/>
</clipPath>
</defs>
</svg>
