<svg width="26" height="27" viewBox="0 0 26 27" fill="none" xmlns="http://www.w3.org/2000/svg">
<g clip-path="url(#clip0_409_881)">
<path d="M12.8238 9.29919C11.6901 9.29919 10.6028 9.74955 9.8012 10.5512C8.99955 11.3528 8.54919 12.4401 8.54919 13.5738C8.54919 14.7075 8.99955 15.7948 9.8012 16.5964C10.6028 17.3981 11.6901 17.8484 12.8238 17.8484C13.9575 17.8484 15.0448 17.3981 15.8464 16.5964C16.6481 15.7948 17.0984 14.7075 17.0984 13.5738C17.0984 12.4401 16.6481 11.3528 15.8464 10.5512C15.0448 9.74955 13.9575 9.29919 12.8238 9.29919Z" fill="#474554"/>
<path fill-rule="evenodd" clip-rule="evenodd" d="M7.6943 0.75C5.65365 0.75 3.69657 1.56065 2.25361 3.00361C0.810647 4.44657 0 6.40365 0 8.4443L0 18.7034C0 20.744 0.810647 22.7011 2.25361 24.1441C3.69657 25.587 5.65365 26.3977 7.6943 26.3977H17.9534C19.994 26.3977 21.9511 25.587 23.3941 24.1441C24.837 22.7011 25.6477 20.744 25.6477 18.7034V8.4443C25.6477 6.40365 24.837 4.44657 23.3941 3.00361C21.9511 1.56065 19.994 0.75 17.9534 0.75L7.6943 0.75ZM6.83938 13.5738C6.83938 11.9867 7.46988 10.4645 8.59219 9.34219C9.71449 8.21988 11.2367 7.58938 12.8238 7.58938C14.411 7.58938 15.9332 8.21988 17.0555 9.34219C18.1778 10.4645 18.8083 11.9867 18.8083 13.5738C18.8083 15.161 18.1778 16.6832 17.0555 17.8055C15.9332 18.9278 14.411 19.5583 12.8238 19.5583C11.2367 19.5583 9.71449 18.9278 8.59219 17.8055C7.46988 16.6832 6.83938 15.161 6.83938 13.5738ZM18.8083 7.58938H20.5181V5.87953H18.8083V7.58938Z" fill="#474554"/>
</g>
<defs>
<clipPath id="clip0_409_881">
<rect width="25.6477" height="25.6477" fill="white" transform="translate(0 0.75)"/>
</clipPath>
</defs>
</svg>
