<svg width="26" height="26" viewBox="0 0 26 26" fill="none" xmlns="http://www.w3.org/2000/svg">
<g clip-path="url(#clip0_409_914)">
<path fill-rule="evenodd" clip-rule="evenodd" d="M0.761719 13.25C0.761719 9.93479 2.07868 6.75537 4.42288 4.41117C6.76709 2.06696 9.94651 0.75 13.2617 0.75C16.5769 0.75 19.7563 2.06696 22.1006 4.41117C24.4448 6.75537 25.7617 9.93479 25.7617 13.25C25.7617 16.5652 24.4448 19.7446 22.1006 22.0888C19.7563 24.433 16.5769 25.75 13.2617 25.75C9.94651 25.75 6.76709 24.433 4.42288 22.0888C2.07868 19.7446 0.761719 16.5652 0.761719 13.25ZM13.6384 9.57833C10.9367 9.35833 8.18505 9.68833 5.93005 10.485L5.37505 8.91333C7.87505 8.03 10.8634 7.68 13.7751 7.91833C16.6801 8.155 19.5717 8.98667 21.8467 10.5317L20.9101 11.91C18.9351 10.57 16.3434 9.8 13.6384 9.57833ZM6.30505 14.07C12.0484 13.0533 16.0517 13.575 19.3701 15.9567L20.3417 14.6017C16.5117 11.8517 11.9817 11.3733 6.01505 12.43L6.30505 14.07ZM6.86505 17.61C8.50839 17.21 10.5317 17.035 12.5184 17.23C14.5117 17.425 16.4084 17.9867 17.8551 19.005L18.8134 17.64C17.0584 16.4067 14.8551 15.785 12.6801 15.5717C10.601 15.3708 8.5031 15.5126 6.47005 15.9917L6.86505 17.61Z" fill="#474554"/>
</g>
<defs>
<clipPath id="clip0_409_914">
<rect width="25" height="25" fill="white" transform="translate(0.761719 0.75)"/>
</clipPath>
</defs>
</svg>
