<svg width="26" height="27" viewBox="0 0 26 27" fill="none" xmlns="http://www.w3.org/2000/svg">
<g clip-path="url(#clip0_409_914)">
<path fill-rule="evenodd" clip-rule="evenodd" d="M0.176147 13.5738C0.176147 10.1727 1.52723 6.91095 3.93216 4.50601C6.3371 2.10108 9.59889 0.75 13 0.75C16.4011 0.75 19.6629 2.10108 22.0678 4.50601C24.4727 6.91095 25.8238 10.1727 25.8238 13.5738C25.8238 16.9749 24.4727 20.2367 22.0678 22.6417C19.6629 25.0466 16.4011 26.3977 13 26.3977C9.59889 26.3977 6.3371 25.0466 3.93216 22.6417C1.52723 20.2367 0.176147 16.9749 0.176147 13.5738ZM13.3864 9.80705C10.6147 9.58135 7.79179 9.9199 5.47838 10.7372L4.909 9.12482C7.47376 8.2186 10.5395 7.85953 13.5266 8.10404C16.5069 8.34684 19.4735 9.20005 21.8074 10.7851L20.8465 12.1991C18.8203 10.8244 16.1615 10.0345 13.3864 9.80705ZM5.86309 14.4151C11.7552 13.3721 15.8623 13.9073 19.2666 16.3506L20.2634 14.9605C16.3342 12.1393 11.6868 11.6485 5.56558 12.7326L5.86309 14.4151ZM6.4376 18.0468C8.1235 17.6364 10.1993 17.4569 12.2374 17.6569C14.2824 17.857 16.2282 18.4332 17.7123 19.4779L18.6955 18.0776C16.895 16.8123 14.6346 16.1745 12.4032 15.9556C10.2704 15.7495 8.11808 15.8951 6.03236 16.3865L6.4376 18.0468Z" fill="#474554"/>
</g>
<defs>
<clipPath id="clip0_409_914">
<rect width="25.6477" height="25.6477" fill="white" transform="translate(0.176147 0.75)"/>
</clipPath>
</defs>
</svg>
