<svg width="26" height="26" viewBox="0 0 26 26" fill="none" xmlns="http://www.w3.org/2000/svg">
<path d="M20.5668 6.54395C20.4086 6.46218 20.2546 6.37255 20.1054 6.27539C19.6714 5.9885 19.2736 5.65046 18.9203 5.26856C18.0366 4.25732 17.7065 3.23145 17.5849 2.51318H17.5898C17.4882 1.91699 17.5302 1.53125 17.5366 1.53125H13.5112V17.0967C13.5112 17.3057 13.5112 17.5122 13.5024 17.7163C13.5024 17.7417 13.4999 17.7651 13.4985 17.7925C13.4985 17.8037 13.4985 17.8154 13.496 17.8272V17.8359C13.4536 18.3944 13.2746 18.9339 12.9747 19.407C12.6748 19.88 12.2633 20.2722 11.7763 20.5488C11.2688 20.8376 10.6947 20.989 10.1108 20.9883C8.23528 20.9883 6.71526 19.459 6.71526 17.5703C6.71526 15.6816 8.23528 14.1523 10.1108 14.1523C10.4658 14.152 10.8186 14.2079 11.1562 14.3179L11.1611 10.2192C10.1363 10.0869 9.0953 10.1683 8.10363 10.4584C7.11195 10.7485 6.19116 11.241 5.39935 11.9048C4.70553 12.5076 4.12224 13.2269 3.67571 14.0303C3.50579 14.3232 2.86468 15.5005 2.78704 17.4111C2.73821 18.4956 3.0639 19.6191 3.21917 20.0835V20.0933C3.31683 20.3667 3.69525 21.2998 4.31194 22.0864C4.80923 22.7174 5.39675 23.2717 6.0556 23.7314V23.7217L6.06536 23.7314C8.01409 25.0557 10.1747 24.9688 10.1747 24.9688C10.5488 24.9536 11.8017 24.9688 13.2245 24.2944C14.8027 23.5469 15.7011 22.4331 15.7011 22.4331C16.2751 21.7676 16.7315 21.0092 17.0507 20.1904C17.415 19.2329 17.5366 18.0845 17.5366 17.6255V9.36768C17.5854 9.39697 18.2358 9.82715 18.2358 9.82715C18.2358 9.82715 19.1728 10.4277 20.6347 10.8188C21.6835 11.0972 23.0966 11.1558 23.0966 11.1558V7.15967C22.6015 7.21338 21.5961 7.05713 20.5668 6.54395Z" fill="#474554"/>
</svg>
