<svg width="30" height="34" viewBox="0 0 30 34" fill="none" xmlns="http://www.w3.org/2000/svg">
<g filter="url(#filter0_d_409_916)">
<path d="M22.9121 6.69407C22.7498 6.61019 22.5918 6.51824 22.4387 6.41856C21.9935 6.12424 21.5853 5.77744 21.223 5.38564C20.3163 4.34821 19.9776 3.29576 19.8529 2.55889H19.8579C19.7537 1.94725 19.7968 1.55151 19.8033 1.55151H15.6736V17.5202C15.6736 17.7346 15.6736 17.9465 15.6646 18.1559C15.6646 18.1819 15.6621 18.206 15.6606 18.234C15.6606 18.2455 15.6606 18.2576 15.6581 18.2696V18.2786C15.6146 18.8516 15.4309 19.405 15.1233 19.8903C14.8156 20.3757 14.3934 20.7779 13.8938 21.0618C13.3731 21.358 12.7842 21.5134 12.1852 21.5126C10.2611 21.5126 8.70168 19.9437 8.70168 18.0061C8.70168 16.0685 10.2611 14.4996 12.1852 14.4996C12.5494 14.4992 12.9114 14.5566 13.2576 14.6694L13.2627 10.4646C12.2114 10.3288 11.1434 10.4123 10.126 10.71C9.10865 11.0076 8.164 11.5128 7.35167 12.1938C6.63988 12.8122 6.04148 13.5502 5.58339 14.3743C5.40906 14.6749 4.75134 15.8827 4.67169 17.8428C4.6216 18.9554 4.95572 20.108 5.11502 20.5844V20.5944C5.2152 20.8749 5.60342 21.8322 6.2361 22.6392C6.74627 23.2865 7.34901 23.8552 8.02492 24.3268V24.3168L8.03494 24.3268C10.0342 25.6854 12.2508 25.5962 12.2508 25.5962C12.6345 25.5807 13.9199 25.5962 15.3796 24.9044C16.9986 24.1375 17.9203 22.9949 17.9203 22.9949C18.5092 22.3121 18.9774 21.5341 19.3049 20.6941C19.6786 19.7118 19.8033 18.5336 19.8033 18.0627V9.59096C19.8534 9.62101 20.5206 10.0623 20.5206 10.0623C20.5206 10.0623 21.4819 10.6785 22.9817 11.0797C24.0577 11.3653 25.5074 11.4254 25.5074 11.4254V7.32575C24.9995 7.38085 23.9681 7.22055 22.9121 6.69407Z" fill="#474554"/>
</g>
<defs>
<filter id="filter0_d_409_916" x="-1.73572" y="0.75" width="33.6477" height="33.6477" filterUnits="userSpaceOnUse" color-interpolation-filters="sRGB">
<feFlood flood-opacity="0" result="BackgroundImageFix"/>
<feColorMatrix in="SourceAlpha" type="matrix" values="0 0 0 0 0 0 0 0 0 0 0 0 0 0 0 0 0 0 127 0" result="hardAlpha"/>
<feOffset dy="4"/>
<feGaussianBlur stdDeviation="2"/>
<feComposite in2="hardAlpha" operator="out"/>
<feColorMatrix type="matrix" values="0 0 0 0 0 0 0 0 0 0 0 0 0 0 0 0 0 0 0.25 0"/>
<feBlend mode="normal" in2="BackgroundImageFix" result="effect1_dropShadow_409_916"/>
<feBlend mode="normal" in="SourceGraphic" in2="effect1_dropShadow_409_916" result="shape"/>
</filter>
</defs>
</svg>
