<svg width="26" height="26" viewBox="0 0 26 26" fill="none" xmlns="http://www.w3.org/2000/svg">
<g clip-path="url(#clip0_733_1371)">
<path d="M8.73398 24.1875C18.1684 24.1875 23.3293 16.3703 23.3293 9.60311C23.3293 9.38436 23.3293 9.16248 23.3199 8.94373C24.3247 8.21637 25.1919 7.31585 25.8809 6.28436C24.9423 6.69819 23.9477 6.97093 22.9293 7.09373C24.002 6.45254 24.8054 5.44369 25.1902 4.25467C24.1824 4.85174 23.0793 5.27088 21.9293 5.49373C21.1561 4.67033 20.1331 4.12486 19.0185 3.94179C17.9039 3.75873 16.7601 3.9483 15.7642 4.48114C14.7683 5.01397 13.9759 5.86034 13.5097 6.88914C13.0435 7.91794 12.9296 9.07175 13.1855 10.1719C11.1461 10.0696 9.15088 9.53978 7.32936 8.61677C5.50784 7.69376 3.90068 6.39818 2.61211 4.81405C1.95795 5.94386 1.75832 7.2803 2.05374 8.55196C2.34917 9.82363 3.11751 10.9352 4.20273 11.6609C3.38952 11.6333 2.59417 11.4149 1.88086 11.0234V11.0937C1.88226 12.2773 2.29228 13.4241 3.0416 14.3402C3.79092 15.2564 4.83359 15.8857 5.99336 16.1219C5.55315 16.2431 5.09841 16.3036 4.6418 16.3015C4.3199 16.3025 3.99864 16.2727 3.68242 16.2125C4.01021 17.2313 4.64847 18.1221 5.50781 18.7601C6.36714 19.3981 7.40451 19.7513 8.47461 19.7703C6.65673 21.1981 4.41117 21.9725 2.09961 21.9687C1.6923 21.9705 1.28527 21.947 0.880859 21.8984C3.22698 23.3941 5.95164 24.1883 8.73398 24.1875Z" fill="#474554"/>
</g>
<defs>
<clipPath id="clip0_733_1371">
<rect width="25" height="25" fill="white" transform="translate(0.880859 0.75)"/>
</clipPath>
</defs>
</svg>
