<svg width="70" height="70" viewBox="0 0 70 70" fill="none" xmlns="http://www.w3.org/2000/svg">
<path d="M65.625 16.555C64.7868 17.8107 63.8348 18.9867 62.7813 20.0681C61.7223 21.1564 60.5719 22.1518 59.3425 23.0431C59.382 23.592 59.4024 24.1421 59.4038 24.6925C59.4038 27.2037 59.1369 29.6843 58.5988 32.1387C58.0625 34.5843 57.2798 36.9692 56.2625 39.2568C54.8535 42.48 52.9913 45.4853 50.7325 48.1818C48.5676 50.7605 46.0316 53.0031 43.2075 54.8362C40.3734 56.665 37.2849 58.0655 34.0419 58.9925C30.6578 59.9611 27.1537 60.4457 23.6337 60.4318C20.2393 60.4362 16.8615 59.9574 13.6019 59.01C10.335 58.0589 7.22604 56.6319 4.375 54.775C7.66575 55.1728 11.0027 54.9178 14.1947 54.0244C17.3868 53.131 20.3713 51.6169 22.9775 49.5687C21.0278 49.5415 19.1118 49.056 17.3844 48.1516C15.6569 47.2472 14.1664 45.9492 13.0331 44.3625C12.2602 43.2961 11.6593 42.1151 11.2525 40.8625C11.6506 40.9237 12.0444 40.9762 12.4338 41.0156C13.9354 41.1626 15.4513 41.0306 16.905 40.6262C15.4711 40.3435 14.0992 39.8072 12.8537 39.0425C11.6469 38.3009 10.5708 37.3652 9.66875 36.2731C7.81689 34.0309 6.81051 31.2099 6.825 28.3018V28.1575C8.58375 29.1506 10.4869 29.68 12.5387 29.7412C10.8278 28.5758 9.42313 27.015 8.44375 25.1912C7.96414 24.2917 7.5926 23.3386 7.33688 22.3518C6.81599 20.2636 6.82652 18.0781 7.3675 15.995C7.64313 14.9318 8.07188 13.9212 8.65375 12.9631C10.2463 14.9362 12.0225 16.7081 13.9738 18.27C17.8518 21.3801 22.3329 23.6519 27.1338 24.9418C29.557 25.5912 32.0433 25.977 34.5494 26.0925C34.4285 25.6257 34.3436 25.1504 34.2956 24.6706C34.2463 24.1895 34.2215 23.7061 34.2213 23.2225C34.2213 21.4856 34.5494 19.8537 35.21 18.3312C36.4908 15.3228 38.8866 12.9271 41.895 11.6462C43.4389 10.9854 45.1025 10.6503 46.7819 10.6618C48.5044 10.6535 50.2099 11.0026 51.7906 11.6871C53.3712 12.3716 54.7927 13.3767 55.965 14.6387C58.7718 14.0846 61.4623 13.0516 63.9187 11.585C63.008 14.5003 61.0465 16.9733 58.415 18.5237C60.9033 18.2345 63.3339 17.5723 65.625 16.5593V16.555Z" fill="#474554"/>
</svg>
