<svg width="26" height="27" viewBox="0 0 26 27" fill="none" xmlns="http://www.w3.org/2000/svg">
<g clip-path="url(#clip0_409_895)">
<path d="M14.791 13.5739L12.057 15.3966V11.7512L14.791 13.5739Z" fill="#474554"/>
<path fill-rule="evenodd" clip-rule="evenodd" d="M2.66316 3.78148C9.41901 2.33374 16.4049 2.33374 23.1608 3.78148C23.8897 3.93762 24.543 4.33906 25.0117 4.91879C25.4803 5.49852 25.7359 6.22146 25.7358 6.96692V20.1806C25.7358 21.716 24.662 23.0446 23.1608 23.366C16.4049 24.8138 9.419 24.8138 2.66316 23.366C1.93423 23.2099 1.28092 22.8085 0.81228 22.2287C0.343641 21.649 0.0880355 20.9261 0.0881348 20.1806V6.96692C0.0881348 5.43148 1.16192 4.10293 2.66316 3.78148ZM11.6758 9.44278C11.547 9.3571 11.3974 9.30796 11.243 9.30057C11.0885 9.29318 10.9349 9.32782 10.7986 9.40081C10.6623 9.47381 10.5483 9.58241 10.4688 9.71506C10.3893 9.8477 10.3473 9.99943 10.3472 10.1541V16.9934C10.3473 17.1481 10.3893 17.2998 10.4688 17.4325C10.5483 17.5651 10.6623 17.6737 10.7986 17.7467C10.9349 17.8197 11.0885 17.8543 11.243 17.847C11.3974 17.8396 11.547 17.7904 11.6758 17.7047L16.8053 14.2851C16.9224 14.207 17.0184 14.1012 17.0848 13.9771C17.1512 13.853 17.1859 13.7145 17.1859 13.5738C17.1859 13.433 17.1512 13.2945 17.0848 13.1704C17.0184 13.0463 16.9224 12.9405 16.8053 12.8625L11.6758 9.44278Z" fill="#474554"/>
</g>
<defs>
<clipPath id="clip0_409_895">
<rect width="25.6477" height="25.6477" fill="white" transform="translate(0.0881348 0.75)"/>
</clipPath>
</defs>
</svg>
