<svg width="26" height="26" viewBox="0 0 26 26" fill="none" xmlns="http://www.w3.org/2000/svg">
<g clip-path="url(#clip0_409_895)">
<path d="M14.6529 13.2501L11.9879 15.0267V11.4734L14.6529 13.2501Z" fill="#474554"/>
<path fill-rule="evenodd" clip-rule="evenodd" d="M2.83129 3.70499C9.41654 2.29381 16.226 2.29381 22.8113 3.70499C23.5218 3.85718 24.1586 4.24849 24.6154 4.81358C25.0722 5.37867 25.3214 6.08335 25.3213 6.80999V19.69C25.3213 21.1867 24.2746 22.4817 22.8113 22.795C16.226 24.2062 9.41653 24.2062 2.83129 22.795C2.12077 22.6428 1.48395 22.2515 1.02715 21.6864C0.570343 21.1213 0.321192 20.4166 0.321289 19.69V6.80999C0.321289 5.31332 1.36796 4.01832 2.83129 3.70499ZM11.6163 9.22332C11.4908 9.13981 11.345 9.09191 11.1944 9.0847C11.0439 9.0775 10.8942 9.11127 10.7613 9.18242C10.6284 9.25357 10.5173 9.35943 10.4398 9.48873C10.3623 9.61803 10.3214 9.76592 10.3213 9.91666V16.5833C10.3214 16.7341 10.3623 16.882 10.4398 17.0113C10.5173 17.1405 10.6284 17.2464 10.7613 17.3176C10.8942 17.3887 11.0439 17.4225 11.1944 17.4153C11.345 17.4081 11.4908 17.3602 11.6163 17.2767L16.6163 13.9433C16.7304 13.8672 16.824 13.7641 16.8887 13.6432C16.9534 13.5222 16.9873 13.3872 16.9873 13.25C16.9873 13.1128 16.9534 12.9778 16.8887 12.8568C16.824 12.7359 16.7304 12.6328 16.6163 12.5567L11.6163 9.22332Z" fill="#474554"/>
</g>
<defs>
<clipPath id="clip0_409_895">
<rect width="25" height="25" fill="white" transform="translate(0.321289 0.75)"/>
</clipPath>
</defs>
</svg>
